<mxfile host="app.diagrams.net" agent="Mozilla/5.0 (Windows NT 10.0; Win64; x64) AppleWebKit/537.36 (KHTML, like Gecko) Chrome/141.0.0.0 Safari/537.36" version="28.2.7">
  <diagram name="Page-1" id="t93nePplv1bX5VRD2M3A">
    <mxGraphModel dx="872" dy="439" grid="1" gridSize="10" guides="1" tooltips="1" connect="1" arrows="1" fold="1" page="1" pageScale="1" pageWidth="1169" pageHeight="827" math="0" shadow="0">
      <root>
        <mxCell id="0" />
        <mxCell id="1" parent="0" />
        <mxCell id="rc6Js2rve7goH0_EYzzB-37" value="" style="rounded=0;whiteSpace=wrap;html=1;fillColor=#f5f5f5;strokeColor=#666666;fontColor=#333333;" parent="1" vertex="1">
          <mxGeometry x="82.5" y="400" width="877.5" height="240" as="geometry" />
        </mxCell>
        <mxCell id="rc6Js2rve7goH0_EYzzB-49" style="edgeStyle=orthogonalEdgeStyle;rounded=0;orthogonalLoop=1;jettySize=auto;html=1;exitX=1;exitY=0.5;exitDx=0;exitDy=0;entryX=1;entryY=0.5;entryDx=0;entryDy=0;" parent="1" source="rc6Js2rve7goH0_EYzzB-39" target="rc6Js2rve7goH0_EYzzB-15" edge="1">
          <mxGeometry relative="1" as="geometry">
            <Array as="points">
              <mxPoint x="950" y="487" />
              <mxPoint x="950" y="604" />
            </Array>
          </mxGeometry>
        </mxCell>
        <mxCell id="rc6Js2rve7goH0_EYzzB-39" value="" style="rounded=0;whiteSpace=wrap;html=1;fillColor=#fff2cc;strokeColor=#d6b656;" parent="1" vertex="1">
          <mxGeometry x="282.5" y="414" width="650" height="146" as="geometry" />
        </mxCell>
        <mxCell id="rc6Js2rve7goH0_EYzzB-1" value="&lt;b&gt;&lt;font style=&quot;font-size: 17px;&quot; face=&quot;Times New Roman&quot;&gt;soil texture&lt;/font&gt;&lt;/b&gt;" style="rounded=0;whiteSpace=wrap;html=1;" parent="1" vertex="1">
          <mxGeometry x="778" y="499" width="135" height="45" as="geometry" />
        </mxCell>
        <mxCell id="rc6Js2rve7goH0_EYzzB-2" value="&lt;b&gt;&lt;font style=&quot;font-size: 17px;&quot; face=&quot;Times New Roman&quot;&gt;Topographic wetness index&lt;/font&gt;&lt;/b&gt;" style="rounded=0;whiteSpace=wrap;html=1;" parent="1" vertex="1">
          <mxGeometry x="315" y="424" width="250" height="40" as="geometry" />
        </mxCell>
        <mxCell id="rc6Js2rve7goH0_EYzzB-3" value="&lt;b&gt;&lt;font style=&quot;font-size: 17px;&quot; face=&quot;Times New Roman&quot;&gt;Vegetation cover&lt;/font&gt;&lt;/b&gt;" style="rounded=0;whiteSpace=wrap;html=1;" parent="1" vertex="1">
          <mxGeometry x="572.5" y="424" width="182.5" height="40" as="geometry" />
        </mxCell>
        <mxCell id="rc6Js2rve7goH0_EYzzB-48" style="edgeStyle=orthogonalEdgeStyle;rounded=0;orthogonalLoop=1;jettySize=auto;html=1;exitX=0.5;exitY=1;exitDx=0;exitDy=0;entryX=0.5;entryY=0;entryDx=0;entryDy=0;" parent="1" source="rc6Js2rve7goH0_EYzzB-36" target="rc6Js2rve7goH0_EYzzB-39" edge="1">
          <mxGeometry relative="1" as="geometry" />
        </mxCell>
        <mxCell id="rc6Js2rve7goH0_EYzzB-36" value="" style="rounded=0;whiteSpace=wrap;html=1;fillColor=#f5f5f5;strokeColor=#666666;fontColor=#333333;" parent="1" vertex="1">
          <mxGeometry x="82.5" y="20" width="877.5" height="350" as="geometry" />
        </mxCell>
        <mxCell id="rc6Js2rve7goH0_EYzzB-4" value="&lt;font face=&quot;Times New Roman&quot;&gt;&lt;span style=&quot;font-size: 17px;&quot;&gt;&lt;b&gt;Rainfall erosivity&lt;/b&gt;&lt;/span&gt;&lt;/font&gt;" style="rounded=0;whiteSpace=wrap;html=1;" parent="1" vertex="1">
          <mxGeometry x="778" y="424" width="142" height="40" as="geometry" />
        </mxCell>
        <mxCell id="rc6Js2rve7goH0_EYzzB-5" value="&lt;font face=&quot;Times New Roman&quot;&gt;&lt;span style=&quot;font-size: 17px;&quot;&gt;&lt;b&gt;Drainage density&lt;/b&gt;&lt;/span&gt;&lt;/font&gt;" style="rounded=0;whiteSpace=wrap;html=1;strokeColor=#330000;" parent="1" vertex="1">
          <mxGeometry x="315" y="494" width="220" height="40" as="geometry" />
        </mxCell>
        <mxCell id="rc6Js2rve7goH0_EYzzB-6" value="&lt;font face=&quot;Times New Roman&quot;&gt;&lt;span style=&quot;font-size: 17px;&quot;&gt;&lt;b&gt;Slope degree&lt;/b&gt;&lt;/span&gt;&lt;/font&gt;" style="rounded=0;whiteSpace=wrap;html=1;" parent="1" vertex="1">
          <mxGeometry x="582.5" y="499" width="172.5" height="40" as="geometry" />
        </mxCell>
        <mxCell id="rc6Js2rve7goH0_EYzzB-35" style="edgeStyle=orthogonalEdgeStyle;rounded=0;orthogonalLoop=1;jettySize=auto;html=1;exitX=0.5;exitY=1;exitDx=0;exitDy=0;" parent="1" source="rc6Js2rve7goH0_EYzzB-7" target="rc6Js2rve7goH0_EYzzB-22" edge="1">
          <mxGeometry relative="1" as="geometry" />
        </mxCell>
        <mxCell id="rc6Js2rve7goH0_EYzzB-7" value="&lt;font face=&quot;Times New Roman&quot;&gt;&lt;span style=&quot;font-size: 17px;&quot;&gt;&lt;b&gt;preprocessing /Processing (reprojection, enhancement, resampling, fill and sinks)&lt;/b&gt;&lt;/span&gt;&lt;/font&gt;" style="rounded=0;whiteSpace=wrap;html=1;" parent="1" vertex="1">
          <mxGeometry x="297.5" y="210" width="602.5" height="50" as="geometry" />
        </mxCell>
        <mxCell id="rc6Js2rve7goH0_EYzzB-8" value="&lt;font face=&quot;Times New Roman&quot;&gt;&lt;span style=&quot;font-size: 17px;&quot;&gt;&lt;b&gt;CHIRPS dataset&lt;/b&gt;&lt;/span&gt;&lt;/font&gt;" style="rounded=0;whiteSpace=wrap;html=1;" parent="1" vertex="1">
          <mxGeometry x="597.5" y="120" width="142.5" height="40" as="geometry" />
        </mxCell>
        <mxCell id="rc6Js2rve7goH0_EYzzB-9" value="&lt;font face=&quot;Times New Roman&quot;&gt;&lt;span style=&quot;font-size: 17px;&quot;&gt;&lt;b&gt;Landsat image&lt;/b&gt;&lt;/span&gt;&lt;/font&gt;" style="rounded=0;whiteSpace=wrap;html=1;" parent="1" vertex="1">
          <mxGeometry x="426.25" y="120" width="152.5" height="40" as="geometry" />
        </mxCell>
        <mxCell id="rc6Js2rve7goH0_EYzzB-10" value="&lt;font face=&quot;Times New Roman&quot;&gt;&lt;span style=&quot;font-size: 17px;&quot;&gt;&lt;b&gt;SRTM DEM&lt;/b&gt;&lt;/span&gt;&lt;/font&gt;" style="rounded=0;whiteSpace=wrap;html=1;" parent="1" vertex="1">
          <mxGeometry x="757.5" y="120" width="142.5" height="40" as="geometry" />
        </mxCell>
        <mxCell id="rc6Js2rve7goH0_EYzzB-31" style="edgeStyle=orthogonalEdgeStyle;rounded=0;orthogonalLoop=1;jettySize=auto;html=1;exitX=0;exitY=0.5;exitDx=0;exitDy=0;entryX=0;entryY=0.5;entryDx=0;entryDy=0;" parent="1" source="rc6Js2rve7goH0_EYzzB-11" target="rc6Js2rve7goH0_EYzzB-7" edge="1">
          <mxGeometry relative="1" as="geometry" />
        </mxCell>
        <mxCell id="rc6Js2rve7goH0_EYzzB-11" value="&lt;font face=&quot;Times New Roman&quot;&gt;&lt;span style=&quot;font-size: 17px;&quot;&gt;&lt;b&gt;&amp;nbsp;Soil dataset&lt;/b&gt;&lt;/span&gt;&lt;/font&gt;" style="rounded=0;whiteSpace=wrap;html=1;" parent="1" vertex="1">
          <mxGeometry x="220" y="120" width="148.5" height="40" as="geometry" />
        </mxCell>
        <mxCell id="rc6Js2rve7goH0_EYzzB-27" style="edgeStyle=orthogonalEdgeStyle;rounded=0;orthogonalLoop=1;jettySize=auto;html=1;exitX=1;exitY=0.5;exitDx=0;exitDy=0;entryX=0.5;entryY=0;entryDx=0;entryDy=0;" parent="1" source="rc6Js2rve7goH0_EYzzB-12" target="rc6Js2rve7goH0_EYzzB-10" edge="1">
          <mxGeometry relative="1" as="geometry" />
        </mxCell>
        <mxCell id="rc6Js2rve7goH0_EYzzB-30" style="edgeStyle=orthogonalEdgeStyle;rounded=0;orthogonalLoop=1;jettySize=auto;html=1;exitX=0.5;exitY=1;exitDx=0;exitDy=0;entryX=0.25;entryY=0;entryDx=0;entryDy=0;" parent="1" source="rc6Js2rve7goH0_EYzzB-12" target="rc6Js2rve7goH0_EYzzB-8" edge="1">
          <mxGeometry relative="1" as="geometry" />
        </mxCell>
        <mxCell id="rc6Js2rve7goH0_EYzzB-12" value="&lt;font face=&quot;Times New Roman&quot;&gt;&lt;span style=&quot;font-size: 17px;&quot;&gt;&lt;b&gt;Remote Sensing Dataset&lt;/b&gt;&lt;/span&gt;&lt;/font&gt;" style="rounded=0;whiteSpace=wrap;html=1;" parent="1" vertex="1">
          <mxGeometry x="482.5" y="40" width="250" height="40" as="geometry" />
        </mxCell>
        <mxCell id="rc6Js2rve7goH0_EYzzB-50" style="edgeStyle=orthogonalEdgeStyle;rounded=0;orthogonalLoop=1;jettySize=auto;html=1;exitX=0;exitY=0.5;exitDx=0;exitDy=0;entryX=1;entryY=0.5;entryDx=0;entryDy=0;" parent="1" source="rc6Js2rve7goH0_EYzzB-15" target="rc6Js2rve7goH0_EYzzB-16" edge="1">
          <mxGeometry relative="1" as="geometry" />
        </mxCell>
        <mxCell id="rc6Js2rve7goH0_EYzzB-15" value="&lt;font face=&quot;Times New Roman&quot;&gt;&lt;span style=&quot;font-size: 17px;&quot;&gt;&lt;b&gt;Fuzzy DEMATEL&lt;/b&gt;&lt;/span&gt;&lt;/font&gt;" style="rounded=0;whiteSpace=wrap;html=1;" parent="1" vertex="1">
          <mxGeometry x="765" y="584" width="165" height="40" as="geometry" />
        </mxCell>
        <mxCell id="rc6Js2rve7goH0_EYzzB-44" style="edgeStyle=orthogonalEdgeStyle;rounded=0;orthogonalLoop=1;jettySize=auto;html=1;exitX=0;exitY=0.5;exitDx=0;exitDy=0;entryX=1;entryY=0.5;entryDx=0;entryDy=0;" parent="1" source="rc6Js2rve7goH0_EYzzB-16" edge="1">
          <mxGeometry relative="1" as="geometry">
            <mxPoint x="520" y="604" as="targetPoint" />
          </mxGeometry>
        </mxCell>
        <mxCell id="rc6Js2rve7goH0_EYzzB-16" value="&lt;font face=&quot;Times New Roman&quot;&gt;&lt;span style=&quot;font-size: 17px;&quot;&gt;&lt;b&gt;Fuzzy DANP&lt;/b&gt;&lt;/span&gt;&lt;/font&gt;" style="rounded=0;whiteSpace=wrap;html=1;" parent="1" vertex="1">
          <mxGeometry x="583.75" y="584" width="141.25" height="40" as="geometry" />
        </mxCell>
        <mxCell id="rc6Js2rve7goH0_EYzzB-43" style="edgeStyle=orthogonalEdgeStyle;rounded=0;orthogonalLoop=1;jettySize=auto;html=1;entryX=1;entryY=0.5;entryDx=0;entryDy=0;exitX=0;exitY=0.5;exitDx=0;exitDy=0;" parent="1" source="RxQnbmZoV_eVTc-EfoEi-1" target="rc6Js2rve7goH0_EYzzB-19" edge="1">
          <mxGeometry relative="1" as="geometry">
            <mxPoint x="390" y="604" as="sourcePoint" />
          </mxGeometry>
        </mxCell>
        <mxCell id="rc6Js2rve7goH0_EYzzB-19" value="&lt;font face=&quot;Times New Roman&quot;&gt;&lt;span style=&quot;font-size: 17px;&quot;&gt;&lt;b&gt;Watershed prioritization&amp;nbsp;&lt;/b&gt;&lt;/span&gt;&lt;/font&gt;" style="rounded=0;whiteSpace=wrap;html=1;fillColor=#d5e8d4;strokeColor=#82b366;" parent="1" vertex="1">
          <mxGeometry x="120" y="584" width="154" height="40" as="geometry" />
        </mxCell>
        <mxCell id="rc6Js2rve7goH0_EYzzB-22" value="&lt;font face=&quot;Times New Roman&quot;&gt;&lt;span style=&quot;font-size: 17px;&quot;&gt;&lt;b&gt;Watershed and sub-watershed delineation&lt;/b&gt;&lt;/span&gt;&lt;/font&gt;" style="rounded=0;whiteSpace=wrap;html=1;" parent="1" vertex="1">
          <mxGeometry x="297.5" y="300" width="602.5" height="50" as="geometry" />
        </mxCell>
        <mxCell id="rc6Js2rve7goH0_EYzzB-29" style="edgeStyle=orthogonalEdgeStyle;rounded=0;orthogonalLoop=1;jettySize=auto;html=1;exitX=0;exitY=0.25;exitDx=0;exitDy=0;entryX=0.156;entryY=0;entryDx=0;entryDy=0;entryPerimeter=0;" parent="1" source="rc6Js2rve7goH0_EYzzB-12" target="rc6Js2rve7goH0_EYzzB-9" edge="1">
          <mxGeometry relative="1" as="geometry" />
        </mxCell>
        <mxCell id="rc6Js2rve7goH0_EYzzB-32" style="edgeStyle=orthogonalEdgeStyle;rounded=0;orthogonalLoop=1;jettySize=auto;html=1;exitX=0.5;exitY=1;exitDx=0;exitDy=0;entryX=0.34;entryY=-0.026;entryDx=0;entryDy=0;entryPerimeter=0;" parent="1" source="rc6Js2rve7goH0_EYzzB-9" target="rc6Js2rve7goH0_EYzzB-7" edge="1">
          <mxGeometry relative="1" as="geometry" />
        </mxCell>
        <mxCell id="rc6Js2rve7goH0_EYzzB-33" style="edgeStyle=orthogonalEdgeStyle;rounded=0;orthogonalLoop=1;jettySize=auto;html=1;exitX=0.5;exitY=1;exitDx=0;exitDy=0;entryX=0.615;entryY=0.068;entryDx=0;entryDy=0;entryPerimeter=0;" parent="1" source="rc6Js2rve7goH0_EYzzB-8" target="rc6Js2rve7goH0_EYzzB-7" edge="1">
          <mxGeometry relative="1" as="geometry" />
        </mxCell>
        <mxCell id="rc6Js2rve7goH0_EYzzB-34" style="edgeStyle=orthogonalEdgeStyle;rounded=0;orthogonalLoop=1;jettySize=auto;html=1;exitX=0.5;exitY=1;exitDx=0;exitDy=0;entryX=0.883;entryY=-0.002;entryDx=0;entryDy=0;entryPerimeter=0;" parent="1" source="rc6Js2rve7goH0_EYzzB-10" target="rc6Js2rve7goH0_EYzzB-7" edge="1">
          <mxGeometry relative="1" as="geometry" />
        </mxCell>
        <mxCell id="RxQnbmZoV_eVTc-EfoEi-1" value="&lt;font face=&quot;Times New Roman&quot;&gt;&lt;span style=&quot;font-size: 17px;&quot;&gt;&lt;b&gt;TOPSIS&lt;/b&gt;&lt;/span&gt;&lt;/font&gt;" style="rounded=0;whiteSpace=wrap;html=1;" vertex="1" parent="1">
          <mxGeometry x="400" y="584" width="122.5" height="40" as="geometry" />
        </mxCell>
      </root>
    </mxGraphModel>
  </diagram>
</mxfile>
